<?xml version="1.0" encoding="UTF-8"?>
<svg id="Laag_2" data-name="Laag 2" xmlns="http://www.w3.org/2000/svg" viewBox="0 0 151.06 64.24">
  <defs>
    <style>
      .cls-1 {
        fill: #39336e;
        stroke-width: 0px;
      }
    </style>
  </defs>
  <g id="Laag_1-2" data-name="Laag 1">
    <g>
      <path class="cls-1" d="m61.83,25.04c-1.5-.83-2.67-2.01-3.53-3.53-.85-1.52-1.28-3.27-1.28-5.26s.44-3.74,1.32-5.26c.88-1.52,2.08-2.7,3.6-3.53,1.52-.83,3.22-1.25,5.09-1.25s3.57.42,5.09,1.25c1.52.83,2.72,2.01,3.6,3.53.88,1.52,1.32,3.27,1.32,5.26s-.45,3.74-1.35,5.26c-.9,1.52-2.12,2.7-3.65,3.53-1.53.83-3.25,1.25-5.14,1.25s-3.56-.41-5.05-1.25Zm7.56-3.68c.78-.43,1.41-1.08,1.88-1.95.47-.86.7-1.92.7-3.16,0-1.85-.49-3.27-1.46-4.26-.97-.99-2.16-1.49-3.56-1.49s-2.58.5-3.53,1.49c-.95.99-1.42,2.42-1.42,4.26s.46,3.27,1.39,4.26c.92.99,2.09,1.49,3.49,1.49.89,0,1.72-.22,2.51-.65Z"/>
      <path class="cls-1" d="m97.58,6.53v19.44h-4.95v-2.46c-.63.84-1.46,1.5-2.47,1.98-1.02.48-2.12.72-3.32.72-1.52,0-2.87-.32-4.03-.97-1.17-.64-2.09-1.59-2.76-2.84-.67-1.25-1-2.74-1-4.47V6.53h4.91v10.7c0,1.54.39,2.73,1.16,3.56s1.83,1.25,3.16,1.25,2.42-.42,3.19-1.25c.77-.83,1.16-2.02,1.16-3.56V6.53h4.95Z"/>
      <path class="cls-1" d="m108.55,7.09c1.11-.58,2.38-.88,3.81-.88,1.66,0,3.16.41,4.51,1.23,1.34.82,2.41,1.98,3.19,3.49.78,1.51,1.18,3.26,1.18,5.25s-.39,3.75-1.18,5.28c-.78,1.53-1.85,2.72-3.19,3.56-1.35.84-2.85,1.26-4.51,1.26-1.45,0-2.72-.29-3.81-.86-1.09-.57-1.96-1.32-2.61-2.23v2.77h-4.91V0h4.91v9.37c.63-.94,1.5-1.7,2.61-2.28Zm6.95,6.05c-.48-.85-1.11-1.5-1.89-1.95-.78-.44-1.63-.67-2.54-.67s-1.73.23-2.51.68c-.78.46-1.41,1.12-1.89,1.98-.48.87-.72,1.88-.72,3.05s.24,2.19.72,3.05c.48.87,1.11,1.53,1.89,1.98s1.62.68,2.51.68,1.76-.23,2.54-.7c.78-.47,1.41-1.13,1.89-2,.48-.86.72-1.89.72-3.09s-.24-2.18-.72-3.03Z"/>
      <path class="cls-1" d="m128.32,0v25.97h-4.91V0h4.91Z"/>
      <path class="cls-1" d="m149.69,17.72h-14.21c.12,1.4.61,2.5,1.47,3.3s1.93,1.19,3.19,1.19c1.83,0,3.12-.78,3.9-2.35h5.3c-.56,1.87-1.64,3.41-3.23,4.61-1.59,1.21-3.54,1.81-5.86,1.81-1.87,0-3.55-.41-5.04-1.25-1.49-.83-2.64-2.01-3.47-3.53-.83-1.52-1.25-3.27-1.25-5.26s.41-3.78,1.23-5.3c.82-1.52,1.97-2.69,3.44-3.51,1.47-.82,3.17-1.23,5.09-1.23s3.5.4,4.96,1.19c1.46.8,2.6,1.92,3.4,3.39.81,1.46,1.21,3.14,1.21,5.04,0,.7-.05,1.33-.14,1.89Zm-4.95-3.3c-.02-1.26-.48-2.28-1.37-3.04s-1.98-1.14-3.26-1.14c-1.22,0-2.24.37-3.07,1.11s-1.34,1.76-1.53,3.07h9.23Z"/>
      <path class="cls-1" d="m57.54,37.17c1.31-2.54,3.08-4.48,5.32-5.85,2.24-1.36,4.75-2.05,7.52-2.05,2.42,0,4.54.49,6.35,1.46,1.81.97,3.27,2.2,4.36,3.68v-4.62h8.25v32.41h-8.25v-4.74c-1.05,1.52-2.51,2.78-4.36,3.77-1.85.99-3.99,1.49-6.41,1.49-2.73,0-5.22-.7-7.46-2.11-2.24-1.4-4.02-3.38-5.32-5.94-1.31-2.55-1.96-5.49-1.96-8.8s.65-6.18,1.96-8.72Zm22.38,3.72c-.78-1.42-1.83-2.52-3.16-3.28-1.33-.76-2.75-1.14-4.27-1.14s-2.93.37-4.21,1.11c-1.29.74-2.33,1.82-3.13,3.25s-1.2,3.11-1.2,5.06.4,3.66,1.2,5.12c.8,1.46,1.85,2.58,3.16,3.36,1.31.78,2.7,1.17,4.18,1.17s2.94-.38,4.27-1.14c1.33-.76,2.38-1.85,3.16-3.28.78-1.42,1.17-3.13,1.17-5.12s-.39-3.69-1.17-5.12Z"/>
      <path class="cls-1" d="m102.5,55.48h14.45v6.73h-23.75v-6.61l14.16-19.07h-14.1v-6.73h23.52v6.61l-14.27,19.07Z"/>
      <path class="cls-1" d="m150.82,48.46h-23.69c.19,2.34,1.01,4.17,2.46,5.5,1.44,1.33,3.22,1.99,5.32,1.99,3.04,0,5.21-1.31,6.49-3.92h8.83c-.94,3.12-2.73,5.68-5.38,7.69-2.65,2.01-5.91,3.01-9.77,3.01-3.12,0-5.92-.69-8.39-2.08-2.48-1.38-4.41-3.34-5.79-5.88-1.38-2.53-2.08-5.46-2.08-8.77s.68-6.3,2.05-8.83c1.37-2.54,3.28-4.48,5.73-5.85,2.46-1.36,5.28-2.05,8.48-2.05s5.84.66,8.28,1.99c2.44,1.33,4.33,3.21,5.67,5.65,1.35,2.44,2.02,5.24,2.02,8.39,0,1.17-.08,2.22-.24,3.16Zm-8.25-5.5c-.04-2.11-.8-3.79-2.28-5.06-1.48-1.27-3.3-1.9-5.44-1.9-2.03,0-3.74.61-5.12,1.84-1.38,1.23-2.23,2.94-2.54,5.12h15.38Z"/>
      <path class="cls-1" d="m38.11,4.07c5.12,2.61,9.04,6.33,11.77,11.17,2.73,4.84,4.09,10.54,4.09,17.1s-1.37,12.24-4.09,17.05c-2.73,4.81-6.65,8.49-11.77,11.03-5.12,2.55-11.17,3.82-18.16,3.82H0V.16h19.95c6.99,0,13.04,1.3,18.16,3.91Zm.15,45.62c4.09-4.12,6.13-9.89,6.13-17.31s-2.06-13.33-6.18-17.53c-4.12-4.2-10.03-6.3-17.75-6.3h-10.88v47.33h10.88c7.77,0,13.7-2.06,17.79-6.18Z"/>
    </g>
  </g>
</svg>