<?xml version="1.0" encoding="UTF-8"?>
<svg id="Laag_2" data-name="Laag 2" xmlns="http://www.w3.org/2000/svg" viewBox="0 0 287.37 122.21">
  <defs>
    <style>
      .cls-1 {
        fill: #fff;
        stroke-width: 0px;
      }
    </style>
  </defs>
  <g id="Laag_1-2" data-name="Laag 1">
    <g>
      <g>
        <path class="cls-1" d="m117.35,47.63c-2.85-1.58-5.08-3.82-6.71-6.71-1.63-2.89-2.44-6.23-2.44-10.01s.83-7.12,2.5-10.01c1.67-2.89,3.95-5.13,6.84-6.71,2.89-1.58,6.12-2.37,9.68-2.37s6.79.79,9.68,2.37c2.89,1.58,5.17,3.82,6.84,6.71,1.67,2.89,2.5,6.23,2.5,10.01s-.86,7.12-2.57,10.01c-1.71,2.89-4.03,5.13-6.94,6.71-2.92,1.58-6.18,2.37-9.78,2.37s-6.76-.79-9.61-2.37Zm14.38-7.01c1.49-.82,2.68-2.06,3.57-3.71.89-1.65,1.33-3.65,1.33-6.01,0-3.51-.92-6.22-2.77-8.11-1.85-1.89-4.1-2.84-6.77-2.84s-4.91.95-6.71,2.84c-1.8,1.89-2.7,4.6-2.7,8.11s.88,6.22,2.64,8.11c1.76,1.89,3.97,2.84,6.64,2.84,1.69,0,3.28-.41,4.77-1.23Z"/>
        <path class="cls-1" d="m185.37,12.42v36.98h-9.41v-4.67c-1.2,1.6-2.77,2.86-4.71,3.77-1.93.91-4.04,1.37-6.31,1.37-2.89,0-5.45-.61-7.67-1.84-2.23-1.22-3.97-3.03-5.24-5.41-1.27-2.38-1.9-5.22-1.9-8.51V12.42h9.34v20.36c0,2.94.73,5.2,2.2,6.78s3.47,2.37,6.01,2.37,4.61-.79,6.07-2.37,2.2-3.84,2.2-6.78V12.42h9.41Z"/>
        <path class="cls-1" d="m206.23,13.48c2.11-1.11,4.53-1.67,7.24-1.67,3.16,0,6.02.78,8.58,2.34,2.56,1.56,4.58,3.77,6.07,6.64,1.49,2.87,2.24,6.2,2.24,9.98s-.75,7.13-2.24,10.05c-1.49,2.92-3.52,5.17-6.07,6.78-2.56,1.6-5.42,2.4-8.58,2.4-2.76,0-5.17-.54-7.24-1.64-2.07-1.09-3.73-2.5-4.97-4.24v5.27h-9.35V0h9.35v17.82c1.2-1.78,2.86-3.23,4.97-4.34Zm13.22,11.52c-.91-1.62-2.11-2.86-3.6-3.71-1.49-.84-3.1-1.27-4.84-1.27s-3.28.43-4.77,1.3c-1.49.87-2.69,2.13-3.6,3.77-.91,1.65-1.37,3.58-1.37,5.81s.45,4.16,1.37,5.81c.91,1.65,2.11,2.9,3.6,3.77s3.08,1.3,4.77,1.3,3.35-.44,4.84-1.33c1.49-.89,2.69-2.16,3.6-3.81.91-1.65,1.37-3.6,1.37-5.87s-.46-4.15-1.37-5.77Z"/>
        <path class="cls-1" d="m243.84,0v49.4h-9.35V0h9.35Z"/>
        <path class="cls-1" d="m284.5,33.71h-27.03c.22,2.67,1.16,4.76,2.8,6.28,1.65,1.51,3.67,2.27,6.07,2.27,3.47,0,5.94-1.49,7.41-4.47h10.08c-1.07,3.56-3.12,6.49-6.14,8.78-3.03,2.29-6.74,3.44-11.15,3.44-3.56,0-6.75-.79-9.58-2.37-2.83-1.58-5.03-3.82-6.61-6.71-1.58-2.89-2.37-6.23-2.37-10.01s.78-7.19,2.34-10.08c1.56-2.89,3.74-5.12,6.54-6.68,2.8-1.56,6.03-2.34,9.68-2.34s6.66.76,9.44,2.27c2.78,1.51,4.94,3.66,6.47,6.44,1.54,2.78,2.3,5.97,2.3,9.58,0,1.33-.09,2.54-.27,3.6Zm-9.41-6.27c-.04-2.4-.91-4.33-2.6-5.77-1.69-1.45-3.76-2.17-6.21-2.17-2.32,0-4.26.7-5.84,2.1-1.58,1.4-2.55,3.35-2.9,5.84h17.55Z"/>
        <path class="cls-1" d="m109.47,70.71c2.49-4.82,5.86-8.53,10.13-11.13,4.26-2.6,9.03-3.89,14.3-3.89,4.6,0,8.63.93,12.08,2.78,3.45,1.85,6.21,4.19,8.29,7.01v-8.79h15.69v61.65h-15.69v-9.01c-2,2.89-4.77,5.29-8.29,7.18-3.53,1.89-7.59,2.84-12.19,2.84-5.19,0-9.93-1.33-14.19-4.01-4.27-2.67-7.64-6.43-10.13-11.3-2.49-4.86-3.73-10.44-3.73-16.75s1.24-11.76,3.73-16.58Zm42.57,7.07c-1.48-2.71-3.49-4.79-6.01-6.23-2.52-1.45-5.23-2.17-8.12-2.17s-5.57.71-8.01,2.11c-2.45,1.41-4.43,3.47-5.96,6.18-1.52,2.71-2.28,5.92-2.28,9.62s.76,6.96,2.28,9.74c1.52,2.78,3.52,4.92,6.01,6.4,2.49,1.48,5.14,2.22,7.96,2.22s5.6-.72,8.12-2.17c2.52-1.45,4.53-3.52,6.01-6.23,1.48-2.71,2.23-5.95,2.23-9.74s-.74-7.03-2.23-9.74Z"/>
        <path class="cls-1" d="m194.99,105.55h27.49v12.8h-45.18v-12.58l26.93-36.28h-26.82v-12.8h44.74v12.58l-27.15,36.28Z"/>
        <path class="cls-1" d="m286.92,92.19h-45.07c.37,4.45,1.93,7.94,4.67,10.46,2.75,2.52,6.12,3.78,10.13,3.78,5.79,0,9.91-2.49,12.35-7.46h16.8c-1.78,5.94-5.19,10.81-10.24,14.63-5.05,3.82-11.24,5.73-18.58,5.73-5.94,0-11.26-1.31-15.97-3.95-4.71-2.63-8.38-6.36-11.02-11.18-2.63-4.82-3.95-10.39-3.95-16.69s1.3-11.98,3.89-16.8c2.6-4.82,6.23-8.53,10.91-11.13,4.68-2.6,10.05-3.89,16.14-3.89s11.11,1.26,15.75,3.78c4.64,2.53,8.24,6.11,10.79,10.74,2.56,4.64,3.84,9.96,3.84,15.97,0,2.22-.15,4.23-.45,6.01Zm-15.69-10.46c-.07-4.01-1.52-7.22-4.34-9.63-2.82-2.41-6.27-3.62-10.35-3.62-3.86,0-7.11,1.17-9.74,3.51-2.63,2.34-4.25,5.58-4.84,9.74h29.27Z"/>
      </g>
      <path class="cls-1" d="m72.5,7.74c9.74,4.96,17.19,12.04,22.39,21.25,5.18,9.21,7.79,20.05,7.79,32.53s-2.6,23.29-7.79,32.44c-5.19,9.16-12.65,16.15-22.39,20.99-9.74,4.84-21.25,7.26-34.54,7.26H0V.3h37.96c13.29,0,24.81,2.48,34.54,7.43Zm.28,86.79c7.78-7.83,11.67-18.81,11.67-32.94s-3.92-25.35-11.75-33.35c-7.83-7.99-19.08-11.99-33.76-11.99h-20.71v90.03h20.71c14.78,0,26.07-3.92,33.84-11.75Z"/>
    </g>
  </g>
</svg>